<svg style="width: 300px" version="1.1" id="Layer_1" xmlns="http://www.w3.org/2000/svg" xmlns:xlink="http://www.w3.org/1999/xlink" x="0px" y="0px" width="310px" viewBox="0 0 111 89.131" enable-background="new 0 0 300 89.131" xml:space="preserve">
<g>
	<path fill="#4B3E28" d="M35.529,67.439v19.328c5.583,1.482,12.548,2.363,20.105,2.363c18.358,0,33.242-5.19,33.242-11.589V60.581
		c0.004-1.281,0.01-2.566,0.016-3.848L55.306,73.032L35.529,67.439z"></path>
	<path fill="#31271A" d="M88.231,56.131L55.306,68.117L29.824,58.84l-7.429-2.704c0,1.977-0.001,3.498-0.002,3.576v17.83
		c0,3.766,5.155,7.111,13.136,9.226V67.439l19.777,5.592l33.586-16.299c0.001-0.281,0.002-0.562,0.004-0.844L88.231,56.131z"></path>
	<polygon fill="#4B3E28" points="55.306,64.808 0,44.675 0,47.982 22.394,56.136 55.306,68.117 88.896,55.889 110.612,47.982
		110.612,44.675 	"></polygon>
	<path fill="#68573C" d="M93.869,38.279l-0.015-0.003c-1.329-0.455-11.231-4.109-11.231-4.109s-1.259,0.805-3.882,2.109
		l-1.807-4.163l-21.628-7.872L0,44.373v0.301l22.394,8.153l32.912,11.98L88.91,52.575l21.703-7.901v-0.301L93.869,38.279z"></path>
	<path fill="#4B3E28" d="M55.306,44.607c0,0-0.615,1.228-1.83-2.42c-3.186-9.563-6.271-26.434-21.044-38.23l3.031-3.214
		C35.463,0.744,51.622,11.435,55.306,44.607"></path>
	<path fill="#6CB41F" d="M89.49,0C77.984,17.828,61.526,19.557,55.336,45.224c-0.322-0.012-0.501-0.022-0.501-0.022
		s17.81,1.138,26.586-7.872c0.498-0.511,0.967-1.056,1.401-1.635C90.922,24.917,89.49,0,89.49,0"></path>
	<path fill="#8CCA24" d="M60.665,11.34c-1.771,1.322-3.312,2.766-4.49,4.333c-8.098,10.779-1.34,29.529-1.34,29.529
		s0.179,0.011,0.501,0.022C61.527,19.557,77.984,17.828,89.49,0C88.825,0.138,71.074,3.574,60.665,11.34"></path>
</g>
</svg>
